<svg width="31" height="31" viewBox="0 0 31 31" fill="none" xmlns="http://www.w3.org/2000/svg">
<path d="M0.794922 2.96713V25.5541C0.794922 27.4884 3.13365 28.4572 4.50145 27.0894L5.50963 26.0812C6.35755 25.2333 6.35755 23.8585 5.50963 23.0106L3.60742 21.1084C3.08965 20.5906 3.08965 19.7512 3.60742 19.2334C4.12519 18.7156 4.96465 18.7156 5.48242 19.2334L11.1074 24.8584C11.6252 25.3762 12.4647 25.3762 12.9824 24.8584C13.5002 24.3406 13.5002 23.5012 12.9824 22.9834L4.23242 14.2334C3.71465 13.7156 3.71465 12.8762 4.23242 12.3584C4.75019 11.8406 5.58965 11.8406 6.10742 12.3584L23.6074 29.8584C24.1252 30.3762 24.9647 30.3762 25.4824 29.8584C26.0002 29.3406 26.0002 28.5012 25.4824 27.9834L9.23242 11.7334C8.71465 11.2156 8.71465 10.3762 9.23242 9.8584C9.75019 9.34063 10.5897 9.34063 11.1074 9.8584L21.7324 20.4834C22.2502 21.0012 23.0897 21.0012 23.6074 20.4834C24.1252 19.9656 24.1252 19.1262 23.6074 18.6084L14.8574 9.8584C14.3397 9.34063 14.3397 8.50117 14.8574 7.9834C15.3752 7.46563 16.2147 7.46563 16.7324 7.9834L27.9824 19.2334C28.5002 19.7512 29.3397 19.7512 29.8574 19.2334C30.3752 18.7156 30.3752 17.8762 29.8574 17.3584L23.5802 11.0812C22.7323 10.2333 22.7323 8.85852 23.5802 8.0106L27.0884 4.50243C28.4562 3.13463 27.4875 0.795898 25.5531 0.795898H2.96616C1.76702 0.795898 0.794922 1.76799 0.794922 2.96713Z" fill="url(#paint0_linear_484_76)"/>
<defs>
<linearGradient id="paint0_linear_484_76" x1="0.794922" y1="0.795898" x2="30.7949" y2="30.7959" gradientUnits="userSpaceOnUse">
<stop stop-color="#7120D8"/>
<stop offset="0.640625" stop-color="#2AFFB2"/>
</linearGradient>
</defs>
</svg>
