<svg width="1080" height="1080" viewBox="0 0 1080 1080" fill="none" xmlns="http://www.w3.org/2000/svg">
<g clip-path="url(#clip0_103_231)">
<g filter="url(#filter0_d_103_231)">
<path d="M63.0938 475.488H164.147L154.144 503.226H97.799V526.823H154.144V553.94H97.799L97.5949 604.653H63.0938V475.488Z" fill="#7120D8"/>
<path d="M316.636 576.916H371.756L371.96 553.319H324.802C314.731 553.319 308.674 548.972 306.633 540.278C306.633 538.07 306.633 535.724 306.633 533.24C306.769 530.756 306.837 528.41 306.837 526.202H306.633V490.392C307.722 485.01 309.763 481.146 312.757 478.8C315.752 476.454 319.766 475.281 324.802 475.281H408.095C406.053 481.353 404.216 486.666 402.583 491.22C400.95 495.636 399.521 499.638 398.296 503.226V503.019H377.881V503.226H343.176V526.202L390.13 525.995C395.165 525.995 399.18 527.168 402.174 529.514C405.169 531.86 407.21 535.724 408.299 541.106C408.299 541.382 408.231 541.727 408.095 542.141C408.095 542.417 408.095 542.693 408.095 542.969H408.503V591.199C406.462 599.893 400.405 604.239 390.334 604.239L363.999 604.653V604.86L306.633 605.274L316.636 576.916Z" fill="#7120D8"/>
<path d="M422.64 475.281H523.694V502.398H490.214L490.009 604.653H455.712V502.398H422.64V475.281Z" fill="#7120D8"/>
<path fill-rule="evenodd" clip-rule="evenodd" d="M210.257 474.453L163.711 604.446H198.417L228.835 518.543L247.412 576.916L256.6 604.446H291.304L247.412 474.453H210.257Z" fill="#7120D8"/>
<path d="M569.751 577.41L569.756 579.886H572.232H627.17L635.441 602.794H539.801V477.974H569.551L569.751 577.41ZM736.259 476.934L778.734 602.586H712.385V579.886H738.039H741.433L740.403 576.652L721.715 518L719.476 510.975L717.013 517.925L686.999 602.586H657.365L702.409 476.934H736.259ZM867.04 602.794V602.17H866.424V502.739V500.258H863.943H832.934H830.463L830.453 502.729L830.052 602.794H800.298V477.974H896.986L896.789 602.794H867.04ZM950.256 529.554H1004.46V551.838H950.256H947.775V554.319V577.197V579.685L950.264 579.678L1013.5 579.48L1005.38 602.794H917.825V477.974H1013.47L1005.19 500.882H950.256H947.775V503.363V527.073V529.554H950.256Z" stroke="#2AFFB2" stroke-width="4.96162"/>
</g>
</g>
<defs>
<filter id="filter0_d_103_231" x="57.0938" y="469.453" width="971.906" height="148.82" filterUnits="userSpaceOnUse" color-interpolation-filters="sRGB">
<feFlood flood-opacity="0" result="BackgroundImageFix"/>
<feColorMatrix in="SourceAlpha" type="matrix" values="0 0 0 0 0 0 0 0 0 0 0 0 0 0 0 0 0 0 127 0" result="hardAlpha"/>
<feOffset dx="3" dy="4"/>
<feGaussianBlur stdDeviation="4.5"/>
<feComposite in2="hardAlpha" operator="out"/>
<feColorMatrix type="matrix" values="0 0 0 0 0 0 0 0 0 0 0 0 0 0 0 0 0 0 0.55 0"/>
<feBlend mode="normal" in2="BackgroundImageFix" result="effect1_dropShadow_103_231"/>
<feBlend mode="normal" in="SourceGraphic" in2="effect1_dropShadow_103_231" result="shape"/>
</filter>
<clipPath id="clip0_103_231">
<rect width="1080" height="1080" fill="white"/>
</clipPath>
</defs>
</svg>
